# xmcd
#
# Track frame offsets:
#	150
#	14592
#	28318
#	42744
#	62335
#	77635
#	96155
#	114373
#	130579
#	143221
#	160947
#	177796
#	196814
#	215795
#	233715
#	245480
#
# Disc length: 3519 seconds
#
# Revision: 0
# Processed by: cddbd v1.5.1PL0 Copyright (c) Steve Scherf et al.
# Submitted via: EasyCDDAExtractor 8.1.4.1
#
DISCID=db0dbd10
DTITLE=Various Artist - La chanson française [CD8]
DYEAR=1900
DGENRE=Chanson
TTITLE0=Jeane Manson - Cristal palace
TTITLE1=Art Sullivan - Petite fille aux yeux blues
TTITLE2=Danyel Gérard - L'écho
TTITLE3=Jean-Pierre François - Je te survivrai
TTITLE4=Linda de Suza - Tiroli tirola
TTITLE5=Anaïs and Didier Barbelivien - Les mariés de vendée
TTITLE6=Michèle Torr - I remember you
TTITLE7=Pascal Danel - Kilimandjaro
TTITLE8=Sweet People - Et les oiseaux chantaient
TTITLE9=Gilbert Montagné - Histoire de femme
TTITLE10=Danyel Gérard - Le train de marchandises
TTITLE11=Regrets - Tout le monde s'amuse
TTITLE12=Alice Dona - Dans ce monde là
TTITLE13=Peter and Sloane - La maladie d'amour
TTITLE14=Jean-Jacques Lafon - Châteaux de porcelaine
TTITLE15=Nicolas Peyrac - Tempête sur ouessant
EXTD=
EXTT0=
EXTT1=
EXTT2=
EXTT3=
EXTT4=
EXTT5=
EXTT6=
EXTT7=
EXTT8=
EXTT9=
EXTT10=
EXTT11=
EXTT12=
EXTT13=
EXTT14=
EXTT15=
PLAYORDER=
